<svg xmlns="http://www.w3.org/2000/svg" xmlns:xlink="http://www.w3.org/1999/xlink" width="500" zoomAndPan="magnify" viewBox="0 0 375 374.999991" height="500" preserveAspectRatio="xMidYMid meet" version="1.0"><defs><g/><clipPath id="dc339421b8"><path d="M 0.761719 0.359375 L 288 0.359375 L 288 4 L 0.761719 4 Z M 0.761719 0.359375 " clip-rule="nonzero"/></clipPath><clipPath id="1eb8fc4466"><path d="M 30 132 L 304.839844 132 L 304.839844 136 L 30 136 Z M 30 132 " clip-rule="nonzero"/></clipPath><clipPath id="f1e608264f"><path d="M 0.761719 109 L 236 109 L 236 113 L 0.761719 113 Z M 0.761719 109 " clip-rule="nonzero"/></clipPath><clipPath id="d4fe1ed0aa"><path d="M 67 169 L 116 169 L 116 252 L 67 252 Z M 67 169 " clip-rule="nonzero"/></clipPath><clipPath id="162702d9e1"><path d="M 143.457031 209.503906 L 109.226562 260.378906 L 45.304688 217.371094 L 79.535156 166.496094 Z M 143.457031 209.503906 " clip-rule="nonzero"/></clipPath><clipPath id="88bab578bf"><path d="M 143.457031 209.503906 L 109.226562 260.378906 L 45.304688 217.371094 L 79.535156 166.496094 Z M 143.457031 209.503906 " clip-rule="nonzero"/></clipPath><clipPath id="da569876d2"><rect x="0" width="103" y="0" height="60"/></clipPath><clipPath id="b7cb2ddc09"><rect x="0" width="305" y="0" height="261"/></clipPath></defs><g transform="matrix(1, 0, 0, 1, 35, 57)"><g clip-path="url(#b7cb2ddc09)"><g clip-path="url(#dc339421b8)"><path stroke-linecap="butt" transform="matrix(0.786141, 0, 0, 0.786141, 2.500002, 0.579386)" fill="none" stroke-linejoin="miter" d="M -0.00000259177 2.000859 L 360.284226 2.000859 " stroke="#ffffff" stroke-width="4" stroke-opacity="1" stroke-miterlimit="4"/></g><path stroke-linecap="butt" transform="matrix(0.786141, 0, 0, 0.786141, 75.361091, 17.874502)" fill="none" stroke-linejoin="miter" d="M -0.00218263 1.998127 L 223.886033 1.998127 " stroke="#ffffff" stroke-width="4" stroke-opacity="1" stroke-miterlimit="4"/><path stroke-linecap="butt" transform="matrix(0.786141, 0, 0, 0.786141, 12.469772, 64.790404)" fill="none" stroke-linejoin="miter" d="M -0.00129974 2.000756 L 241.00474 2.000756 " stroke="#ffffff" stroke-width="4" stroke-opacity="1" stroke-miterlimit="4"/><path stroke-linecap="butt" transform="matrix(-0.786141, 0, 0, -0.786141, 265.568931, 44.477014)" fill="none" stroke-linejoin="miter" d="M -0.00175711 1.998068 L 297.147763 1.998068 " stroke="#ffffff" stroke-width="4" stroke-opacity="1" stroke-miterlimit="4"/><path stroke-linecap="butt" transform="matrix(0.786141, 0, 0, 0.786141, 64.689434, 89.946876)" fill="none" stroke-linejoin="miter" d="M -0.00246006 2.000474 L 237.460761 2.000474 " stroke="#ffffff" stroke-width="4" stroke-opacity="1" stroke-miterlimit="4"/><path stroke-linecap="butt" transform="matrix(-0.786141, 0, 0, -0.786141, 208.213973, 173.47084)" fill="none" stroke-linejoin="miter" d="M -0.00110822 2.000152 L 147.858132 2.000152 " stroke="#ffffff" stroke-width="4" stroke-opacity="1" stroke-miterlimit="4"/><g clip-path="url(#1eb8fc4466)"><path stroke-linecap="butt" transform="matrix(-0.786141, 0, 0, -0.786141, 303.070333, 135.587433)" fill="none" stroke-linejoin="miter" d="M 0.0000256952 1.999396 L 344.855852 1.999396 " stroke="#ffffff" stroke-width="4" stroke-opacity="1" stroke-miterlimit="4"/></g><path stroke-linecap="butt" transform="matrix(0.786141, 0, 0, 0.786141, 35.801494, 153.174389)" fill="none" stroke-linejoin="miter" d="M -0.000906759 1.999264 L 297.625627 1.999264 " stroke="#ffffff" stroke-width="4" stroke-opacity="1" stroke-miterlimit="4"/><g clip-path="url(#f1e608264f)"><path stroke-linecap="butt" transform="matrix(0.786141, 0, 0, 0.786141, 2.500002, 109.258201)" fill="none" stroke-linejoin="miter" d="M -0.00000259177 2.001968 L 293.959491 2.001968 " stroke="#ffffff" stroke-width="4" stroke-opacity="1" stroke-miterlimit="4"/></g><g clip-path="url(#d4fe1ed0aa)"><g clip-path="url(#162702d9e1)"><g clip-path="url(#88bab578bf)"><path fill="#ffffff" d="M 91.769531 248.570312 C 91.953125 248.769531 92.175781 248.828125 92.4375 248.746094 C 92.699219 248.667969 92.847656 248.492188 92.886719 248.21875 C 93.230469 245.597656 93.792969 239.433594 92.367188 233.949219 C 94.164062 235.894531 96.128906 237.863281 98.269531 239.859375 C 100.261719 243.914062 104.917969 250.441406 114.609375 251.6875 C 114.890625 251.726562 115.109375 251.625 115.261719 251.386719 C 115.414062 251.148438 115.414062 250.910156 115.265625 250.667969 C 113.121094 247.296875 106.292969 237.628906 98.136719 236.667969 C 96.71875 235.296875 95.367188 233.917969 94.085938 232.527344 C 100.617188 235.863281 107.140625 234.472656 107.140625 234.472656 C 103.492188 227.34375 92.179688 225.269531 87.683594 224.714844 C 85.183594 221.28125 83.050781 217.636719 81.28125 213.777344 C 87.363281 220.839844 96.25 220.761719 96.25 220.761719 C 94.042969 212.859375 82.894531 208.554688 78.824219 207.230469 C 77.28125 202.136719 76.71875 196.933594 77.136719 191.625 C 78.65625 199.945312 85.210938 204.429688 85.210938 204.429688 C 87.917969 196.710938 81.277344 186.832031 78.6875 183.390625 C 80.898438 175.9375 84.507812 171.511719 84.550781 171.460938 C 84.644531 171.347656 84.714844 171.21875 84.757812 171.078125 C 84.800781 170.9375 84.816406 170.792969 84.804688 170.644531 C 84.789062 170.5 84.75 170.359375 84.679688 170.230469 C 84.609375 170.097656 84.519531 169.988281 84.40625 169.890625 C 84.292969 169.796875 84.164062 169.730469 84.023438 169.683594 C 83.882812 169.640625 83.738281 169.625 83.59375 169.640625 C 83.445312 169.652344 83.304688 169.695312 83.175781 169.765625 C 83.046875 169.832031 82.933594 169.925781 82.839844 170.039062 C 82.679688 170.230469 80.449219 172.964844 78.375 177.722656 C 75.738281 178.460938 69.296875 181.050781 67.46875 188.992188 C 67.421875 189.191406 67.480469 189.351562 67.640625 189.480469 C 67.800781 189.605469 67.96875 189.625 68.152344 189.53125 C 69.824219 188.6875 73.539062 186.613281 76.28125 183.675781 C 75.632812 186.074219 75.191406 188.507812 74.960938 190.980469 C 74.84375 192.246094 74.777344 193.589844 74.78125 195.003906 C 72.03125 197.757812 66.503906 204.816406 69.332031 215.0625 C 69.402344 215.328125 69.574219 215.480469 69.84375 215.527344 C 70.113281 215.578125 70.328125 215.488281 70.484375 215.265625 C 71.773438 213.410156 74.382812 209.324219 75.890625 204.726562 C 76.507812 207.460938 77.347656 210.125 78.40625 212.71875 C 76.222656 215.664062 71.960938 223.117188 76.09375 232.398438 C 76.199219 232.636719 76.378906 232.757812 76.640625 232.765625 C 76.902344 232.773438 77.089844 232.660156 77.207031 232.425781 C 78.375 230.035156 80.972656 224.15625 81.128906 218.484375 C 82.972656 221.882812 85.082031 225.109375 87.457031 228.164062 C 86.277344 231.8125 84.515625 240.695312 91.769531 248.570312 Z M 91.769531 248.570312 " fill-opacity="1" fill-rule="nonzero"/></g></g></g><g transform="matrix(1, 0, 0, 1, 102, 176)"><g clip-path="url(#da569876d2)"><g fill="#ffffff" fill-opacity="1"><g transform="translate(0.152759, 47.793712)"><g><path d="M 24.640625 -23.15625 L 22.96875 -15.953125 L 22.3125 -15.953125 C 22.164062 -19.835938 20.53125 -21.78125 17.40625 -21.78125 C 13.851562 -21.78125 11.035156 -19.113281 8.953125 -13.78125 C 8.085938 -11.59375 7.65625 -9.429688 7.65625 -7.296875 C 7.65625 -3.367188 9.414062 -1.40625 12.9375 -1.40625 C 15.457031 -1.40625 17.765625 -2.632812 19.859375 -5.09375 L 20.65625 -5.09375 C 19.375 -3.15625 18.078125 -1.765625 16.765625 -0.921875 C 15.285156 0.0351562 13.46875 0.515625 11.3125 0.515625 C 8.613281 0.515625 6.425781 -0.296875 4.75 -1.921875 C 3.070312 -3.554688 2.234375 -5.726562 2.234375 -8.4375 C 2.234375 -11.070312 2.9375 -13.519531 4.34375 -15.78125 C 5.71875 -17.96875 7.582031 -19.726562 9.9375 -21.0625 C 12.425781 -22.457031 14.898438 -23.15625 17.359375 -23.15625 C 18.273438 -23.15625 19.441406 -22.953125 20.859375 -22.546875 C 21.554688 -22.347656 22.046875 -22.25 22.328125 -22.25 C 22.890625 -22.25 23.457031 -22.550781 24.03125 -23.15625 Z M 24.640625 -23.15625 "/></g></g></g><g fill="#ffffff" fill-opacity="1"><g transform="translate(22.952993, 47.793712)"><g><path d="M 5.46875 -22.640625 L 23.6875 -22.640625 L 21.96875 -16.546875 L 21.375 -16.546875 C 21.382812 -16.859375 21.390625 -17.140625 21.390625 -17.390625 C 21.390625 -19.753906 19.90625 -21.019531 16.9375 -21.1875 L 11.90625 -4.140625 C 11.625 -3.203125 11.484375 -2.5 11.484375 -2.03125 C 11.484375 -1.125 12.351562 -0.65625 14.09375 -0.625 L 13.953125 0 L 2.71875 0 L 2.921875 -0.625 C 4.179688 -0.625 5.082031 -0.90625 5.625 -1.46875 C 6.050781 -1.90625 6.460938 -2.796875 6.859375 -4.140625 L 11.90625 -21.1875 C 8.632812 -21.082031 6.113281 -19.535156 4.34375 -16.546875 L 3.6875 -16.546875 Z M 5.46875 -22.640625 "/></g></g></g><g fill="#ffffff" fill-opacity="1"><g transform="translate(43.831078, 47.793712)"><g><path d="M 4.734375 -22.015625 L 4.90625 -22.640625 L 15.953125 -22.640625 L 15.75 -22.015625 C 14.601562 -22.015625 13.757812 -21.710938 13.21875 -21.109375 C 12.789062 -20.640625 12.398438 -19.789062 12.046875 -18.5625 L 7.921875 -4.078125 C 7.617188 -3.015625 7.46875 -2.328125 7.46875 -2.015625 C 7.46875 -1.117188 8.378906 -0.65625 10.203125 -0.625 L 10.03125 0 L -1.203125 0 L -1.03125 -0.625 C 0.195312 -0.625 1.085938 -0.898438 1.640625 -1.453125 C 2.085938 -1.898438 2.5 -2.773438 2.875 -4.078125 L 7.046875 -18.5625 C 7.296875 -19.445312 7.421875 -20.125 7.421875 -20.59375 C 7.421875 -21.425781 6.523438 -21.898438 4.734375 -22.015625 Z M 4.734375 -22.015625 "/></g></g></g><g fill="#ffffff" fill-opacity="1"><g transform="translate(57.134376, 47.793712)"><g><path d="M 12.1875 -22.640625 L 19.265625 -7.546875 L 22.453125 -18.5 C 22.617188 -19.070312 22.703125 -19.601562 22.703125 -20.09375 C 22.703125 -21.269531 21.921875 -21.910156 20.359375 -22.015625 L 20.546875 -22.640625 L 27.734375 -22.640625 L 27.5625 -22.015625 C 25.695312 -21.910156 24.4375 -20.738281 23.78125 -18.5 L 18.265625 0.25 L 17.625 0.25 L 8.546875 -19.046875 L 4.15625 -4.015625 C 4.019531 -3.515625 3.953125 -3.046875 3.953125 -2.609375 C 3.953125 -1.285156 4.773438 -0.625 6.421875 -0.625 L 6.265625 0 L -1.09375 0 L -0.953125 -0.625 C -0.335938 -0.625 0.113281 -0.675781 0.40625 -0.78125 C 1.539062 -1.226562 2.359375 -2.304688 2.859375 -4.015625 L 7.65625 -20.453125 C 6.726562 -21.472656 5.628906 -21.992188 4.359375 -22.015625 L 4.546875 -22.640625 Z M 12.1875 -22.640625 "/></g></g></g><g fill="#ffffff" fill-opacity="1"><g transform="translate(81.818823, 47.793712)"><g><path d="M 19.9375 -23.15625 L 18.0625 -15.484375 L 17.515625 -15.484375 C 17.390625 -16.703125 17.171875 -17.660156 16.859375 -18.359375 C 15.898438 -20.546875 14.441406 -21.640625 12.484375 -21.640625 C 11.628906 -21.640625 10.875 -21.3125 10.21875 -20.65625 C 9.5625 -20 9.234375 -19.25 9.234375 -18.40625 C 9.234375 -17.300781 9.671875 -16.175781 10.546875 -15.03125 C 10.972656 -14.46875 11.820312 -13.582031 13.09375 -12.375 C 15.375 -10.207031 16.515625 -8.101562 16.515625 -6.0625 C 16.515625 -3.382812 15.253906 -1.472656 12.734375 -0.328125 C 11.503906 0.234375 10.109375 0.515625 8.546875 0.515625 C 7.773438 0.515625 6.65625 0.375 5.1875 0.09375 C 3.726562 -0.1875 2.675781 -0.328125 2.03125 -0.328125 C 1.363281 -0.328125 0.65625 -0.046875 -0.09375 0.515625 L -0.75 0.515625 L 1.265625 -8.125 L 1.890625 -8.125 C 2.203125 -5.019531 3.175781 -2.894531 4.8125 -1.75 C 5.6875 -1.164062 6.679688 -0.875 7.796875 -0.875 C 8.847656 -0.875 9.753906 -1.21875 10.515625 -1.90625 C 11.285156 -2.601562 11.671875 -3.476562 11.671875 -4.53125 C 11.671875 -6.070312 10.507812 -7.988281 8.1875 -10.28125 C 6.6875 -11.757812 5.660156 -13.070312 5.109375 -14.21875 C 4.691406 -15.0625 4.484375 -15.972656 4.484375 -16.953125 C 4.484375 -18.835938 5.226562 -20.363281 6.71875 -21.53125 C 8.09375 -22.613281 9.742188 -23.15625 11.671875 -23.15625 C 12.640625 -23.15625 13.910156 -22.9375 15.484375 -22.5 C 16.410156 -22.25 17.0625 -22.125 17.4375 -22.125 C 18.039062 -22.125 18.628906 -22.46875 19.203125 -23.15625 Z M 19.9375 -23.15625 "/></g></g></g></g></g></g></g></svg>